<svg width="20" height="20" viewBox="0 0 20 20" fill="none" xmlns="http://www.w3.org/2000/svg">
<path d="M17.3889 3.10579C15.8731 1.50024 13.5994 1.12246 11.6099 1.87801L13.1257 3.38912C14.2626 3.20023 15.3047 3.57801 16.1573 4.42801C16.9152 5.27801 17.2941 6.3169 17.1994 7.54468C17.1047 8.39468 16.631 9.15023 16.0626 9.81135L9.99941 15.9502L3.93625 9.7169C3.36783 9.15023 2.89415 8.30023 2.79941 7.45023C2.70467 6.22246 3.17836 4.99468 4.03099 4.23912C5.45204 3.01135 7.72572 3.20023 9.05204 4.52246L10.5678 6.03357C11.231 6.78912 12.3678 6.78912 13.1257 6.03357L10.3784 3.20023C8.29415 1.12246 4.78888 0.933568 2.70467 3.01135C1.47309 4.14468 0.904671 5.75023 0.999408 7.45023C1.09415 8.77246 1.7573 10.0947 2.70467 11.0391L9.99941 18.5002L17.2941 11.0391C18.2415 10.0947 18.9047 8.8669 18.9994 7.45023C19.0941 5.84468 18.5257 4.23912 17.3889 3.10579Z" fill="#202624"/>
</svg>
